<?xml version="1.0" encoding="UTF-8" standalone="no"?>
<!-- Created with Inkscape (http://www.inkscape.org/) -->

<svg
   xmlns:osb="http://www.openswatchbook.org/uri/2009/osb"
   xmlns:dc="http://purl.org/dc/elements/1.1/"
   xmlns:cc="http://creativecommons.org/ns#"
   xmlns:rdf="http://www.w3.org/1999/02/22-rdf-syntax-ns#"
   xmlns:svg="http://www.w3.org/2000/svg"
   xmlns="http://www.w3.org/2000/svg"
   xmlns:sodipodi="http://sodipodi.sourceforge.net/DTD/sodipodi-0.dtd"
   xmlns:inkscape="http://www.inkscape.org/namespaces/inkscape"
   width="2814.6624"
   height="1011.3964"
   id="svg2"
   version="1.1"
   inkscape:version="0.48.5 r10040"
   sodipodi:docname="logo-with-text.svg"
   inkscape:export-filename="/home/edd/source/barcamp-canterbury-branding/2014/logo.png"
   inkscape:export-xdpi="33.150002"
   inkscape:export-ydpi="33.150002">
  <defs
     id="defs4">
    <linearGradient
       id="linearGradient5536"
       osb:paint="solid">
      <stop
         style="stop-color:#668386;stop-opacity:1;"
         offset="0"
         id="stop5538" />
    </linearGradient>
  </defs>
  <sodipodi:namedview
     id="base"
     pagecolor="#ffffff"
     bordercolor="#666666"
     borderopacity="1.0"
     inkscape:pageopacity="0.0"
     inkscape:pageshadow="2"
     inkscape:zoom="0.32367912"
     inkscape:cx="1055.2975"
     inkscape:cy="535.77151"
     inkscape:document-units="px"
     inkscape:current-layer="g3076"
     showgrid="false"
     inkscape:window-width="1596"
     inkscape:window-height="877"
     inkscape:window-x="0"
     inkscape:window-y="19"
     inkscape:window-maximized="0"
     showguides="true"
     inkscape:guide-bbox="true"
     fit-margin-top="50"
     fit-margin-left="50"
     fit-margin-right="50"
     fit-margin-bottom="50">
    <sodipodi:guide
       position="865.73264,990.87669"
       orientation="279.59789,0"
       id="guide3004" />
    <sodipodi:guide
       position="1081.8724,848.59379"
       orientation="0,-553.01682"
       id="guide3006" />
  </sodipodi:namedview>
  <metadata
     id="metadata7">
    <rdf:RDF>
      <cc:Work
         rdf:about="">
        <dc:format>image/svg+xml</dc:format>
        <dc:type
           rdf:resource="http://purl.org/dc/dcmitype/StillImage" />
        <dc:title />
      </cc:Work>
    </rdf:RDF>
  </metadata>
  <g
     inkscape:label="Layer 1"
     inkscape:groupmode="layer"
     id="layer1"
     transform="translate(1024.7171,841.92689)">
    <g
       id="g3081">
      <path
         id="path3288"
         d="m -352.60494,-711.75394 c -5.31992,0.0221 -10.48292,0.17245 -15.34375,0.5 -25.94401,1.74824 -53.03125,6.08482 -53.03125,8.46875 0,0.67124 3.7125,2.67944 8.25,4.5 25.24375,10.1284 71.70565,38.22168 85.34375,51.59375 7.8574,7.70413 10.7973,13.27087 10.8125,20.5 0.009,4.36126 -0.59428,6.4317 -2.875,10 -6.99166,10.93884 -19.72377,19.74395 -33.53125,23.15625 -7.76877,1.91993 -28.46925,1.65458 -39,-0.5 -21.58562,-4.4164 -37.41378,-10.45276 -74,-28.15625 -41.58754,-20.12356 -58.30401,-26.46841 -79.5,-30.15625 -11.29289,-1.96482 -34.04859,-1.35283 -43,1.15625 -25.44443,7.13211 -47.85745,29.22139 -66.0625,65.0625 -9.45056,18.60574 -18.46378,42.4375 -16.03125,42.4375 0.23286,0 5.97036,-1.32641 12.75,-2.96875 57.83562,-14.01048 101.74858,-9.49897 128.625,13.21875 12.80779,10.82597 22.12648,26.92933 27.1875,46.96875 10.14086,40.15336 2.92072,81.71445 -18.125,104.25 -8.38807,8.98187 -15.32376,13.38585 -27.90625,17.6875 -8.54764,2.92223 -10.57851,3.2209 -21.4375,3.25 -24.04718,0.0645 -39.00055,-6.75765 -80.0625,-36.46875 -22.37561,-16.19027 -35.22359,-24.23177 -55.9375,-35 -41.99694,-21.83233 -74.9275,-27.37079 -96.75,-16.3125 -12.22055,6.19262 -22.88172,21.40046 -27.96875,39.875 -2.07355,7.5305 -2.22422,10.17142 -2.34375,45 -0.1347,39.24764 -0.54164,44.06134 -5.09375,56.875 -8.87685,24.98729 -26.89723,40.17757 -54.34375,45.84375 -12.85854,2.65458 -41.15745,2.11583 -65.25,-1.25 -9.20183,-1.28553 -17.0484,-1.98285 -17.46875,-1.5625 -0.42034,0.42034 6.42158,7.82098 15.21875,16.46875 28.3753,27.89339 53.06553,41.09942 80.03125,42.8125 30.44965,1.9344 62.38947,-16.65331 91.53125,-53.28125 15.65781,-19.68011 25.22067,-26.68061 40.9375,-30 10.26703,-2.16839 26.72216,-1.46985 37.875,1.59375 17.18622,4.72093 36.84494,16.85415 52.625,32.5 11.31223,11.21601 18.12332,20.28514 24.40625,32.5 11.59323,22.53882 14.88506,45.64596 9.03125,63.25 -4.43081,13.32466 -14.70929,26.75093 -29.625,38.75 -13.1498,10.57847 -28.87753,16.91521 -53.09375,21.343746 -8.87201,1.62246 -12.80557,2.74906 -13,3.75 -0.40024,2.06045 10.47041,14.52389 18,20.625 22.75533,18.43827 46.91105,25.41025 87.8125,25.40625 30.50378,-0.003 54.86467,-2.23426 76.90625,-7.0625 4.71317,-1.03242 18.6875,-4.62949 31.0625,-8 12.375,-3.37051 29.25,-7.55269 37.5,-9.28125 13.37824,-2.80304 16.89206,-3.15535 32.5,-3.21875 19.84171,-0.0806 27.43847,1.2882 39.5,7 17.53352,8.30308 25.45881,25.06736 21.09375,44.6875 -1.96064,8.81269 -7.95055,21.6848703 -14.0625,30.2500003 -14.65542,20.5377097 -42.87492,37.7580197 -75.3125,45.9374997 -19.30178,4.86713 -30.68604,6.03725 -58.96875,6.03125 -18.46708,-0.004 -26.25,0.31797 -26.25,1.09375 0,0.60651 7.9912,4.81654 17.75,9.375 64.70772,30.22582 119.7242,46.222544 173.75,50.468754 10.11022,0.79462 48.31042,-0.39775 58.5,-1.8125 46.44828,-6.44904 84.90324,-22.160944 121.78125,-49.781254 11.13106,-8.33676 34.08009,-30.32067 44.6875,-42.8125 45.040711,-53.04228 77.633611,-130.922686 90.406251,-215.999996 18.44406,-122.85411 -0.85094,-253.04889 -52.03125,-351 -8.773061,-16.79028 -10.562201,-19.35375 -12.718751,-18.40625 -6.61371,2.90579 -21.3751,7.55851 -27.84375,8.78125 -67.096,12.68283 -131.32518,-27.93189 -148.90625,-94.1875 -2.10477,-7.93199 -2.65927,-12.76065 -3.09375,-26.8125 -0.34046,-11.01116 -0.0974,-19.54699 0.65625,-23.875 0.64502,-3.70379 0.94698,-6.92802 0.6875,-7.1875 -0.68094,-0.68094 -7.48147,-2.15693 -20.09375,-4.3125 -13.92952,-2.38071 -31.1965,-3.62877 -47.15625,-3.5625 z m 189.125,184.5625 c 9.89649,0 14.47987,4.26911 27,25.09375 54.884721,91.28931 73.523591,197.69853 52.906251,301.90625 -9.1051,46.02057 -24.600601,87.44848 -47.937501,128.062496 -13.93774,24.25631 -21.72147,34.58547 -27.78125,36.875 -3.84429,1.45249 -11.54925,1.28498 -15.1875,-0.34375 -3.76489,-1.68539 -9.0429,-7.20719 -10.4375,-10.90625 -1.48056,-3.92708 -1.31659,-11.70289 0.3125,-14.6875 0.75051,-1.375 5.49154,-9.025 10.53125,-17 30.62892,-48.468116 49.38999,-102.025866 56.75,-161.999996 2.48701,-20.26576 2.48701,-64.73424 0,-85 -7.63762,-62.23631 -26.56623,-115.4687 -58.9375,-165.78125 -8.5348,-13.26509 -9.06173,-21.50764 -1.90625,-29.4375 4.40792,-4.88494 8.52049,-6.78125 14.6875,-6.78125 z m -70.84375,46.75 c 3.49599,-0.0512 7.21072,0.65482 10.03125,2.09375 4.90645,2.50309 6.9104,5.00957 15.625,19.40625 35.47037,58.59765 52.36503,125.89916 48.65625,194.03125 -1.99633,36.67334 -8.49651,67.91357 -21.09375,101.5625 -12.44922,33.25356 -35.3708,73.697336 -44.75,78.968746 -4.56401,2.56511 -11.34564,3.51656 -15.625,2.1875 -4.22646,-1.31264 -9.95155,-6.32164 -11.875,-10.375 -2.16282,-4.55781 -2.09816,-13.263376 0.125,-17.343746 0.96165,-1.76499 4.7978,-8.06499 8.53125,-14 45.42195,-72.20659 57.60803,-162.01832 33.1875,-244.46875 -7.20332,-24.32039 -19.69412,-52.12738 -32.875,-73.125 -3.59551,-5.72779 -6.99868,-11.64205 -7.5625,-13.125 -1.32671,-3.48951 -1.31474,-9.67984 0.0312,-13.25 1.32514,-3.5148 6.4777,-8.97559 10.40625,-11.03125 1.87855,-0.98297 4.4684,-1.49146 7.1875,-1.53125 z m -71.84375,48.90625 c 3.12272,0.0306 6.25068,0.82204 9.125,2.4375 10.18264,5.72296 30.44409,44.66006 39.5,75.90625 7.09722,24.48805 9.50487,42.24826 9.53125,70.21875 0.0282,29.91776 -3.06923,50.67392 -11.46875,76.65625 -7.13266,22.06353 -15.71166,40.29175 -27.71875,58.875 -6.68726,10.34981 -10.11999,13.70722 -15.5625,15.21875 -5.64842,1.56872 -8.3514,1.2681 -13.90625,-1.5 -3.17633,-1.58283 -6.17975,-4.07473 -7.96875,-6.65625 -2.44268,-3.52478 -2.84375,-5.10019 -2.84375,-10.71875 0,-6.41967 0.16511,-6.86657 6.875,-17.5 43.80162,-69.41418 44.59141,-155.64022 2.03125,-225.09375 -6.01084,-9.80902 -6.7878,-11.66571 -7.1875,-17.21875 -0.38763,-5.38529 -0.10018,-6.81513 2.1875,-10.71875 3.74191,-6.3851 10.53626,-9.97367 17.40625,-9.90625 z"
         style="fill:#ed8e09;fill-opacity:1;stroke:none"
         inkscape:connector-curvature="0" />
      <g
         id="g3076">
        <path
           inkscape:connector-curvature="0"
           style="fill:#d23535;fill-opacity:1;fill-rule:nonzero;stroke:none"
           d="m -173.77602,-567.25716 c -23.73329,-3.08246 -46.43588,-14.18055 -64.05505,-31.31312 -38.86365,-37.79036 -45.09303,-98.05214 -14.82448,-143.40916 39.07028,-58.54628 121.84364,-67.09774 172.517761,-17.82309 38.86365,37.79035 45.09303,98.05213 14.82448,143.40915 -23.67254,35.47298 -66.004951,54.65058 -108.462711,49.13622 z"
           id="path3272" />
        <text
           xml:space="preserve"
           style="font-size:200px;font-style:normal;font-variant:normal;font-weight:bold;font-stretch:normal;line-height:125%;letter-spacing:0px;word-spacing:0px;fill:#ffffff;fill-opacity:1;stroke:none;font-family:Century Gothic;-inkscape-font-specification:Century Gothic Bold"
           x="-221.02223"
           y="-607.21509"
           id="text2994"
           sodipodi:linespacing="125%"><tspan
             sodipodi:role="line"
             id="tspan2996"
             x="-221.02223"
             y="-607.21509">5</tspan></text>
      </g>
    </g>
    <g
       id="g3049"
       transform="translate(0,70.459899)">
      <text
         sodipodi:linespacing="125%"
         id="text3039"
         y="-421.18933"
         x="26.274267"
         style="font-size:300px;font-style:normal;font-variant:normal;font-weight:normal;font-stretch:normal;line-height:125%;letter-spacing:0px;word-spacing:0px;fill:#000000;fill-opacity:1;stroke:none;font-family:Century Gothic;-inkscape-font-specification:Century Gothic"
         xml:space="preserve"><tspan
           style="font-size:300px"
           y="-421.18933"
           x="26.274267"
           id="tspan3041"
           sodipodi:role="line"><tspan
   id="tspan3043"
   style="font-size:300px;font-weight:bold;-inkscape-font-specification:Century Gothic Bold">bar</tspan>camp</tspan></text>
      <text
         sodipodi:linespacing="125%"
         id="text3045"
         y="-206.26984"
         x="777.98236"
         style="font-size:180px;font-style:normal;font-variant:normal;font-weight:normal;font-stretch:normal;line-height:125%;letter-spacing:0px;word-spacing:0px;fill:#000000;fill-opacity:1;stroke:none;font-family:Century Gothic;-inkscape-font-specification:Century Gothic"
         xml:space="preserve"><tspan
           y="-206.26984"
           x="777.98236"
           id="tspan3047"
           sodipodi:role="line">canterbury</tspan></text>
    </g>
  </g>
</svg>
